<svg width="1918" height="364" viewBox="0 0 1918 364" fill="none" xmlns="http://www.w3.org/2000/svg">
<path d="M1932 342.327C1821.7 342.634 1642.22 341.952 1637.95 340.844C1636.01 340.362 1634.01 340.195 1632.02 340.349C1628.21 340.631 1624.05 342.115 1624.11 343.317C1624.16 344.306 1627.01 344.904 1629.06 345.295C1658.29 350.893 1676.24 354.335 1699.73 347.273C1705.16 345.636 1720.13 341.155 1719.99 335.404C1719.94 333.351 1718.01 331.601 1714.55 329.469C1705.32 323.796 1695.99 322.115 1685.89 321.062C1676.84 320.117 1663.16 318.772 1647.34 321.062C1646.11 321.24 1640.92 322.501 1630.54 325.018C1624.31 326.531 1620.37 327.535 1620.16 329.469C1619.99 331.052 1622.42 332.506 1623.13 332.931C1627 335.255 1630.86 333.663 1635.98 333.92C1650.98 334.677 1654.56 333.475 1657.23 331.447C1658.3 330.631 1660.94 328.564 1661.67 325.018C1662.57 320.72 1660.07 317.105 1659.7 316.611C1659.01 315.657 1658.18 314.822 1657.23 314.138C1647.54 307.16 1638.54 299.257 1629.55 291.388C1613.12 277.002 1606.29 269.346 1570.74 234.514C1555.42 219.514 1543.8 208.303 1529.23 198.906C1523.92 195.484 1517.12 192.007 1503.53 185.059C1503.53 185.059 1499.7 183.081 1488.21 179.124C1481.47 176.79 1479.09 176.33 1477.34 177.64C1474.93 179.45 1474.44 184.07 1476.35 187.037C1479.45 191.824 1487.25 189.648 1487.72 189.51C1488.42 189.302 1495.2 187.19 1496.12 181.102C1496.91 175.865 1492.69 172.151 1492.16 171.706C1490.88 170.625 1489.37 169.843 1487.75 169.416C1486.12 168.988 1484.43 168.926 1482.77 169.233C1480.46 169.693 1477.71 171.102 1477.83 172.2C1477.93 173.076 1479.81 173.684 1481.29 173.684C1483.73 173.684 1485.47 171.968 1486.23 171.211C1487.5 169.955 1488.1 168.738 1489.2 166.266C1490.91 162.428 1492.1 159.5 1492.16 159.342C1494.47 153.669 1495.43 153.199 1499.08 145C1500.2 142.502 1500.75 141.231 1501.06 140.054C1502.32 135.193 1501.14 131.182 1501.06 129.174C1500.68 120.485 1499.67 117.74 1499.08 110.381C1498.34 101.063 1497.91 95.6431 1500.07 89.1149C1500.73 87.1367 1504.64 75.2921 1512.43 74.2782C1512.68 74.2436 1516.57 73.7837 1519.35 76.2565C1522.12 78.7292 1522.24 82.7401 1522.31 84.6639C1522.85 99.2533 1525.61 95.4749 1525.77 114.337C1525.88 127.74 1525.87 134.53 1522.8 139.065C1521.68 140.722 1520.42 142.032 1514.9 149.451C1513.72 151.028 1512.39 152.833 1509.46 156.869C1505.57 162.235 1503.6 176.889 1498.09 173.189C1498.05 173.16 1503.34 160.984 1511.93 159.836C1513.1 159.678 1512.81 159.935 1517.37 159.836C1524.08 159.693 1524.33 159.154 1528.24 159.342C1532.15 159.53 1533.15 160.148 1534.17 159.342C1536.37 157.601 1534.91 152.507 1534.17 149.451C1533.79 147.858 1533.25 140.475 1532.19 125.712C1531.36 114.105 1531.92 102.73 1532.19 97.0278C1532.62 88.2247 1533.22 84.2633 1530.71 79.2238C1530.09 77.9825 1526.51 70.8164 1519.35 69.3327C1515.89 68.6255 1512.99 69.5305 1510.45 70.3218C1506.52 71.5949 1502.96 73.8008 1500.07 76.751C1498.51 78.2693 1497.21 79.5403 1496.12 81.6966C1494.77 84.468 1494.09 87.5173 1494.14 90.5986C1494.17 91.2662 1494.14 91.7014 1494.14 92.5768C1494.08 95.5145 1493.8 95.8804 1493.65 96.0387C1492.85 96.8745 1490.94 96.8992 1490.19 96.0387C1489.44 95.1782 1490.19 94.0209 1491.18 90.5986C1492.58 85.7767 1492.16 84.7876 1493.65 81.6966C1494.32 80.1675 1495.33 78.8137 1496.61 77.7401C1497.5 77.023 1497.66 77.1566 1498.09 76.751C1500.31 74.664 1497.02 70.035 1497.6 63.398C1497.76 61.5385 1498.05 58.769 1500.07 56.4742C1502.38 53.858 1506.28 52.6266 1506.99 53.5069C1507.48 54.1201 1506.5 55.8808 1505.51 56.9688C1503.09 59.5949 1499.4 59.5306 1494.14 59.4416C1491.82 59.402 1490.68 59.1646 1489.69 58.4525C1488.26 57.4633 1487.66 55.9154 1487.22 54.496C1486.27 51.2853 1485.77 47.9553 1485.74 44.6049C1485.48 35.6584 1484.11 34.8572 1484.75 28.2846C1485.3 22.5329 1486.53 21.3608 1487.22 20.8662C1487.92 20.3717 1489.34 19.6892 1495.62 20.8662C1498.64 21.428 1501.61 22.198 1504.52 23.1708L1505.01 23.339C1505.27 23.4231 1512.82 25.6832 1514.43 26.1679C1516.23 26.7168 1517.54 27.1125 1519.35 27.79C1522.16 28.8434 1524.29 29.7682 1524.29 29.7682C1527.07 31.0343 1527.58 31.5239 1528.24 31.2519C1529.79 30.609 1529.58 26.8009 1529.23 21.3608C1528.9 16.2668 1528.73 13.7199 1527.75 11.9642C1526.15 9.13536 1523.71 7.93358 1518.85 5.53499C1514.66 3.46721 1510.15 2.12924 1505.51 1.57854C1502.54 1.22741 1501.02 1.04937 1499.08 1.57854C1493.25 3.16607 1490.78 8.76444 1490.68 8.99688C1489.92 10.704 1489.58 12.5704 1489.69 14.437C1489.72 15.2834 1489.88 16.1198 1490.19 16.9098C1491.52 19.7238 1496.99 19.4914 1501.06 19.3825C1504.92 19.2787 1505.85 18.7347 1509.96 18.888C1512.43 18.982 1513.69 19.0265 1514.9 19.3825C1519.46 20.7277 1519.35 23.7791 1524.29 26.3063C1525.89 27.1223 1527.99 27.6763 1532.19 28.7791C1535.71 29.7039 1536.05 29.5655 1537.63 30.2628C1540.9 31.7019 1544.46 34.4962 1544.06 36.692C1543.92 37.4487 1543.38 37.7405 1543.56 38.1757C1543.96 39.1203 1546.57 37.869 1549.49 38.6702C1552.84 39.5852 1552.65 42.1321 1556.41 43.1212C1558.27 43.6158 1559.53 43.324 1559.87 44.1103C1560.24 44.9857 1559.24 46.6573 1557.89 47.0777C1555.98 47.6761 1554.1 45.4951 1553.44 46.0886C1553.04 46.4545 1553.29 47.681 1553.94 48.5613C1555.63 50.8759 1559.42 49.9461 1559.87 51.5287C1559.92 51.7976 1559.89 52.0737 1559.81 52.3325C1559.72 52.5914 1559.57 52.8249 1559.38 53.0123C1558.39 54.0015 1556.23 53.4377 1554.93 53.0123C1546.21 50.1381 1537.91 46.1486 1530.22 41.143C1524.65 37.3053 1518.77 33.9027 1513.41 29.7682C1511.44 28.245 1509.23 26.4102 1506 25.8118C1504.09 25.4557 1502.79 25.7079 1500.07 24.8227C1498.79 24.4072 1498.29 24.0957 1497.6 24.3281C1495.96 24.882 1494.88 27.9285 1495.62 30.2628C1496.28 32.335 1497.82 32.0877 1499.08 34.7138C1500.1 36.8354 1499.83 38.5367 1500.57 38.6702C1501.3 38.8038 1501.63 37.1124 1503.53 36.1974C1504.46 35.7523 1505.26 35.7326 1506.5 35.7029C1507.85 35.6683 1510.51 35.604 1510.94 36.692C1511.08 37.0382 1510.94 37.4141 1508.97 40.1539C1507.48 42.2162 1507.13 42.5574 1506.5 43.6158C1505.51 45.2725 1505.01 46.0886 1505.01 47.0777C1505.01 48.8729 1506.45 50.1588 1507.98 51.5287C1509.51 52.8986 1511.35 54.5554 1513.91 54.496C1515.35 54.4301 1516.73 53.9109 1517.86 53.0123C1520.88 50.7077 1520.83 46.3705 1520.83 41.6376C1520.83 37.1322 1520.83 32.8394 1517.86 29.7682C1516.75 28.611 1515.58 28.0224 1513.91 27.2954C1501.32 21.8553 1492.33 22.9483 1487.72 17.8989C1487.03 17.0814 1486.19 16.4089 1485.25 15.9207C1482.44 14.531 1479.73 15.4904 1477.34 15.9207C1475.66 16.2273 1475.7 15.985 1459.55 13.4479C1453.97 12.5725 1452.4 12.3549 1452.13 12.9533C1451.87 13.5517 1452.81 14.8574 1460.54 19.8771C1472.15 27.429 1479.03 30.2628 1478.82 30.7573C1478.68 31.1035 1475.7 29.5605 1459.55 22.8444C1457.08 21.8108 1453.18 20.2035 1453.12 17.8989C1453.14 17.3946 1453.28 16.9028 1453.54 16.4701C1453.8 16.0375 1454.17 15.6781 1454.61 15.4261C1455.97 14.6595 1457.57 15.5003 1460.04 16.4152C1462.29 17.251 1464.69 17.612 1466.96 18.3934C1474.79 21.0888 1483.51 22.4043 1498.09 27.2954C1516 33.2993 1510.07 33.7247 1519.35 36.1974C1521.49 36.7711 1526.18 37.9086 1526.76 40.6484C1526.97 41.6376 1526.48 42.1321 1524.78 45.594C1522.01 51.2913 1522.41 51.9243 1520.83 53.5069C1518.85 55.4851 1517.37 55.3021 1516.87 56.9688C1516.29 58.9173 1517.72 60.9895 1518.36 61.9143C1520.61 65.1636 1523.41 65.4949 1523.3 66.3653C1523.06 68.1853 1511.04 65.3218 1501.06 71.3109C1498.13 73.0748 1495.61 75.4335 1493.65 78.2347C1491.26 81.6719 1490.09 85.3415 1489.2 92.0823C1488.4 98.1307 1488 105.267 1488.7 117.305C1489.57 132.072 1490.78 131.538 1489.69 135.603C1488.25 141.004 1485.31 145 1484.26 153.902C1484.17 154.614 1483.64 159.208 1484.26 159.342C1484.49 159.391 1484.97 158.803 1487.72 150.934C1488.83 147.74 1488.59 148.303 1491.67 138.076C1493.07 133.422 1493.65 131.647 1492.66 130.658C1491.98 129.965 1491.05 130.163 1486.73 130.163C1483.32 130.163 1484.51 130.034 1481.51 130.059C1475.96 130.109 1472.62 130.529 1469.43 130.658C1461.85 130.964 1455.39 131.226 1451.64 127.196C1449.76 125.173 1448.39 121.879 1449.17 118.788C1450.11 115.074 1453.74 113.274 1455.59 112.359C1460.23 110.064 1461.73 111.825 1471.9 110.875C1478.62 110.247 1482.99 109.016 1484.75 111.37C1484.93 111.569 1485.07 111.804 1485.15 112.06C1485.24 112.315 1485.27 112.586 1485.25 112.854C1484.99 114.026 1482.85 115 1470.42 115.326C1455.95 115.702 1452.47 114.55 1449.66 112.359C1447.75 110.875 1448.47 110.687 1446.7 109.392C1440.49 104.842 1434.99 109.451 1424.46 106.919C1420.84 106.049 1419.02 104.911 1415.07 104.941C1413.42 104.941 1412.43 105.153 1411.61 104.446C1409.69 102.775 1410.3 97.3493 1413.09 95.5441C1413.85 95.0496 1414.91 94.7479 1421.49 96.5332C1425.73 97.652 1429.87 99.1413 1433.85 100.984C1436.69 102.3 1438.97 103.556 1440.27 105.93C1440.71 106.737 1441.01 107.614 1441.16 108.521C1441.4 109.965 1441.46 112.814 1440.27 113.348C1438.83 114.001 1435.44 111.266 1435.33 108.403C1435.3 107.611 1435.51 106.271 1436.32 105.93C1437.36 105.495 1438.79 106.919 1439.29 107.413C1440.32 108.447 1441.57 110.218 1442.25 114.337C1442.86 118.041 1443.61 122.586 1441.26 124.228C1440.41 124.827 1439.37 124.792 1437.31 124.723C1434.84 124.639 1432.57 124.565 1430.88 123.239C1427.52 120.593 1428.29 114.377 1428.41 113.348C1428.66 111.37 1429.32 109.392 1429.4 105.435C1429.4 104.599 1429.4 104.179 1429.4 103.952C1429.04 100.821 1422.29 97.6411 1410.13 96.0387C1391 93.5165 1374.87 97.0575 1364.17 99.5006C1348.04 103.18 1339.98 107.324 1337.97 108.403C1333.23 110.954 1332.19 112.532 1326.11 115.326C1323.74 116.419 1320.5 117.745 1320.68 118.788C1320.8 119.456 1322.27 119.708 1322.65 119.777C1326.15 120.381 1329.03 118.254 1336.99 113.843C1339.77 112.3 1341.52 111.395 1341.93 111.864C1342.34 112.334 1341.43 113.62 1340.94 114.337C1336.78 120.435 1314.12 149.312 1314.25 149.451C1314.39 149.589 1330.56 135.109 1330.56 135.109C1336.3 129.96 1339.07 127.537 1339.95 128.185C1341.09 129.026 1338.71 134.738 1336.49 138.57C1333.7 143.397 1330.95 145.613 1329.57 150.934C1329.3 152.008 1328.59 154.792 1329.57 155.385C1330.26 155.801 1331.45 154.965 1331.55 154.891C1333.69 153.358 1333.59 149.861 1333.53 145.989C1333.41 138.714 1333.36 135.074 1333.53 134.119C1334.57 128.185 1341.72 125.217 1351.32 120.766C1381.32 106.894 1384.61 102.166 1396.29 101.479C1397.71 101.395 1403 101.588 1413.59 101.973C1419.45 102.186 1421.2 102.3 1423.47 103.457C1427.25 105.386 1427.16 107.527 1432.86 112.359C1435.22 114.315 1437.7 116.132 1440.27 117.799C1444.9 120.851 1446.99 121.622 1448.18 124.228C1448.38 124.659 1449.2 126.568 1448.68 130.163C1447.72 136.691 1443.44 141.177 1442.25 142.527C1435.71 149.985 1436.03 161.78 1436.32 172.2C1436.45 176.958 1437.11 200.647 1453.62 212.754C1455.78 214.341 1464.49 220.736 1470.91 217.699C1476.65 214.984 1478.27 205.805 1479.32 199.895C1480.18 194.999 1479.77 192.611 1481.29 184.564C1482.87 176.196 1483.99 175.168 1484.75 174.673C1487.72 172.779 1492.69 174.866 1502.54 179.124C1509.85 182.279 1512.3 184.07 1515.89 183.081C1519.09 182.215 1521.11 179.722 1522.8 177.64C1526.19 173.471 1526.01 170.45 1530.22 165.771C1531.92 163.872 1533.15 162.502 1534.17 162.804C1536.45 163.476 1535.53 171.899 1535.16 180.113C1534.81 187.962 1534.08 204.03 1537.63 217.699C1539.07 223.258 1539.68 222.482 1549 241.438C1561.2 266.26 1558.05 263.307 1564.81 275.562C1571.65 287.956 1575.76 301.853 1583.59 313.643C1584.09 314.375 1585.61 316.611 1585.07 319.083C1584.37 322.323 1580.5 323.984 1578.15 325.018C1559.19 333.376 1557.06 337.14 1548.01 336.887C1544.61 336.793 1539.38 336.106 1539.11 334.415C1539 333.722 1539.74 332.995 1542.57 330.953C1546.57 328.069 1549.75 326.151 1549.99 326.007C1554.12 323.505 1558.88 318.163 1559.38 312.654C1559.75 308.495 1557.15 304.934 1551.96 297.817C1546.03 289.657 1544.22 290.933 1541.09 284.959C1540.07 283.01 1538.78 280.053 1535.65 278.53C1533.28 277.373 1531.35 277.783 1531.21 277.046C1530.92 275.647 1537.49 272.462 1541.58 271.606C1543.4 271.256 1545.16 270.65 1546.81 269.806C1547.3 269.559 1547.62 269.361 1548.01 269.133C1551.8 266.888 1552.36 265.518 1553.94 265.177C1556.17 264.682 1559.32 266.522 1559.38 268.144C1559.47 270.938 1550.39 273.297 1543.56 275.068C1539.31 276.171 1537.89 276.195 1536.64 276.057C1532.76 275.622 1529.68 273.485 1526.26 270.122C1518.98 262.956 1515.53 255.503 1510.94 245.395C1507.75 238.337 1506.82 235.009 1506.99 231.052C1507.06 229.321 1507.87 226.601 1509.46 221.161C1511.59 213.926 1513.25 209.826 1515.89 205.83C1517.08 204.02 1519.09 200.974 1520.33 201.379C1521.75 201.839 1521.39 206.503 1521.32 207.314C1520.77 213.654 1517.55 218.194 1515.89 220.667C1512.43 225.81 1506.57 234.559 1504.52 244.9C1503.73 248.856 1502.64 254.391 1504.03 261.22C1505.24 267.2 1507.45 269.771 1506 271.606C1504.4 273.649 1500.38 272.101 1487.72 272.101C1483.76 272.101 1481.99 272.259 1480.8 273.584C1478.89 275.711 1479.81 279.42 1481.29 284.464C1485.77 299.825 1487.06 299.662 1487.72 304.741C1488.01 307.031 1489.57 319.158 1482.77 325.513C1479.65 328.43 1476.77 328.257 1472.4 332.931C1470.32 335.156 1466.96 338.712 1467.95 340.844C1468.66 342.416 1476.84 341.586 1493.15 339.855C1498.11 339.302 1502.95 337.966 1507.48 335.898C1511 334.291 1512.18 333.193 1512.92 331.942C1514.9 328.554 1513.33 324.523 1511.93 320.072C1509.88 313.49 1507.58 306.151 1507.48 298.312C1507.41 291.972 1508.78 286.71 1506.62 279.435C1506.23 278.089 1505.69 276.79 1505.01 275.562C1504.38 274.415 1500.96 268.248 1495.13 267.155C1492.44 266.66 1490 267.373 1485.74 268.639C1481.75 269.826 1479.94 271.052 1478.33 270.122C1476.71 269.193 1476.47 266.66 1476.35 265.177C1474.7 244.94 1473.96 248.293 1474.37 239.954C1474.55 236.408 1474.87 232.427 1475.36 228.085C1476.47 218.56 1477.86 213.248 1480.3 203.852C1481.67 198.605 1482.96 194.376 1484.26 194.455C1484.7 194.48 1485.01 194.994 1485.25 195.444C1487 198.857 1486.2 203.357 1485.74 206.325C1483.76 218.891 1485.17 220.87 1482.77 225.118C1482.2 226.007 1481.86 227.028 1481.79 228.085C1481.63 231.765 1485.39 234.816 1486.23 235.503C1489.24 237.947 1491.53 237.976 1491.67 239.46C1491.78 240.612 1490.46 241.438 1488.7 242.922C1485.96 245.207 1482.96 248.327 1481.79 250.34C1479.94 253.5 1481.25 256.191 1482.77 264.682C1484.83 276.092 1483.16 275.098 1484.75 280.508C1487.51 289.855 1491.44 289.242 1495.13 299.796C1496.4 303.441 1499.68 312.802 1495.62 317.105C1493.96 318.871 1491.9 318.905 1491.18 321.062C1490.36 323.505 1491.91 326.749 1494.14 328.48C1497.96 331.447 1503.37 329.672 1503.53 330.458C1503.66 331.091 1500.26 332.881 1493.65 334.415C1483.27 336.813 1475.01 336.259 1468.44 335.898C1446.29 334.682 1435.21 334.068 1422.48 335.898C1420.1 336.239 1416.92 336.774 1411.61 337.382C1404.41 338.208 1403.01 338.059 1389.87 338.866C1377.48 339.627 1372.6 340.137 1371.58 337.876C1370.64 335.804 1373.98 333.702 1373.06 329.964C1372.42 327.337 1370 325.255 1367.63 324.523C1365.68 323.925 1364 324.306 1357.25 326.996C1348.15 330.621 1347.67 331.329 1345.88 330.953C1342.82 330.31 1343.02 327.985 1336.49 322.051C1330.3 316.423 1327.81 316.413 1326.61 316.611C1325.74 316.754 1324.47 317.179 1322.16 319.578C1315.95 326.007 1315.28 333.089 1313.76 332.931C1312.68 332.822 1312.66 329.242 1311.29 323.04C1309.28 313.984 1307.56 313.643 1307.83 310.181C1308.39 302.877 1316.72 295.018 1324.14 295.345C1330.92 295.641 1334.91 302.689 1336.99 301.279C1338.69 300.122 1337.06 294.672 1335.5 291.388C1334.32 288.915 1329.95 279.652 1321.67 279.519C1314.65 279.405 1310.15 285.948 1309.81 286.443C1305.85 292.377 1307.45 299.301 1306.84 299.301C1306.23 299.301 1304.69 291.309 1305.36 281.497C1305.85 274.46 1306.23 269.722 1309.81 265.671C1310.43 264.959 1315.07 259.845 1320.18 260.726C1326.43 261.804 1328.61 271.017 1329.57 270.617C1330.68 270.157 1329.86 256.997 1321.17 253.307C1320.34 252.956 1316.9 251.497 1313.26 252.813C1306.14 255.394 1304.24 266.458 1303.38 266.166C1303.01 266.037 1303.47 264.015 1303.88 261.22C1305.03 253.209 1303.7 252.843 1304.86 249.846C1306.35 246.033 1308.43 246.804 1312.77 240.449C1313.91 238.782 1316.75 234.628 1315.74 233.525C1315.01 232.739 1312.59 233.768 1311.29 234.514C1306.72 237.135 1304.95 242.605 1304.37 244.405C1303.51 247.071 1303.44 248.856 1302.89 248.856C1302.2 248.856 1302.02 246.201 1300.42 241.933C1299.28 238.96 1297.79 236.137 1295.97 233.525C1294.83 231.903 1292.85 229.356 1292.51 229.569C1292.16 229.781 1294.41 233.792 1295.97 237.482C1297.68 241.542 1298.52 245.325 1299.43 256.769C1299.63 259.272 1301.49 282.798 1299.92 282.981C1299.63 283.015 1299.49 282.234 1297.94 278.53C1296.59 275.281 1295.47 272.64 1293.99 270.122C1291.8 266.423 1290.25 263.797 1288.06 263.693C1285.87 263.589 1284.11 266.166 1282.13 269.133C1277.54 276.097 1275.52 284.425 1276.69 284.959C1277.08 285.132 1277.51 284.351 1278.67 283.475C1283.05 280.162 1289.42 281.824 1290.04 281.992C1297.94 284.173 1300.61 292.813 1300.91 293.861C1301.59 296.205 1301.66 298.272 1299.92 307.709C1297.65 320.072 1295.15 329.509 1294.98 329.469C1295.57 327.038 1295.9 324.551 1295.97 322.051C1295.97 320.468 1295.97 311.991 1293 311.17C1291.28 310.676 1289.14 312.951 1287.07 315.127C1283.61 318.762 1283.12 321.487 1281.14 321.556C1279.61 321.611 1278.38 320.003 1277.68 319.083C1275.1 315.691 1276.69 312.803 1274.72 311.17C1272.58 309.42 1268.45 310.884 1266.32 312.16C1263.66 313.752 1262.42 316.072 1261.37 318.094C1258.53 323.589 1258.69 328.48 1258.41 328.48C1258.13 328.48 1258.52 321.2 1258.9 314.632C1259.54 303.816 1259.65 300.478 1262.36 298.312C1263.89 297.095 1266.23 296.255 1268.29 296.828C1272.18 297.911 1273.14 303.45 1273.73 303.258C1274.54 302.991 1274.72 291.784 1268.29 289.41C1267.07 288.979 1265.76 288.844 1264.47 289.015C1263.18 289.187 1261.95 289.661 1260.88 290.399C1257.97 292.555 1257.91 296.423 1256.93 296.334C1256.04 296.255 1255.57 293.05 1255.44 290.894C1255.21 286.937 1254.93 282.051 1257.91 279.024C1260.07 276.843 1261.65 277.931 1266.32 274.573C1269.6 272.214 1269.75 271.003 1269.78 270.617C1269.9 268.416 1267.17 266.66 1264.83 265.177C1261.74 263.199 1258.51 261.136 1255.94 262.209C1251.9 263.901 1252.45 272.14 1251.49 272.101C1250.41 272.056 1250.31 261.68 1250.5 255.286C1250.7 248.669 1251.21 246.151 1252.97 243.911C1254.46 242.037 1256.27 241.023 1255.94 239.954C1255.56 238.748 1252.61 238.085 1250.5 238.965C1248.18 239.954 1246.94 242.749 1246.05 247.867C1243.85 260.572 1246.61 271.492 1246.05 271.606C1245.84 271.65 1245.38 269.984 1244.57 267.65C1242.59 261.903 1240.87 256.997 1238.64 256.769C1237.1 256.611 1235.7 258.748 1234.19 261.22C1228.55 270.567 1223.74 281.497 1224.8 281.992C1225.66 282.397 1227.58 274.732 1233.7 273.09C1238.39 271.833 1243.9 274.573 1247.04 278.035C1248.4 279.519 1249.39 281.255 1250.5 284.464C1254.52 296.037 1253.65 308.094 1252.48 308.203C1251.98 308.248 1251.91 306.264 1250.01 301.774C1248.03 297.061 1245.65 291.492 1242.59 291.388C1241.03 291.334 1239.72 293 1237.16 296.334C1233.56 301.022 1230.99 306.195 1231.72 306.719C1232.3 307.13 1234.08 304.074 1238.15 303.258C1239.45 302.999 1240.8 302.999 1242.1 303.258C1243.93 303.651 1245.63 304.502 1247.04 305.73C1251.18 309.059 1254.49 315.443 1253.96 322.051C1253.85 323.46 1253.56 327.1 1251.49 327.985C1250.56 328.386 1249.89 327.951 1248.03 327.491C1247.01 327.239 1242.19 326.052 1238.15 327.491C1235.29 328.51 1235.76 329.79 1233.45 330.211C1230.38 330.765 1229.43 328.529 1225.54 328.727C1224.76 328.767 1221.17 329.044 1220.11 331.2C1219.52 332.407 1220.19 333.233 1219.61 334.167C1218.39 336.146 1213.6 335.231 1213.19 335.156C1207.52 334.167 1120.95 334.538 992.284 335.651H712.815C705.659 335.46 698.539 334.548 691.565 332.931C669.192 327.743 655.681 316.942 641.651 305.73C638.631 303.317 627.013 293.861 625.342 282.981C625.11 281.497 624.67 278.372 626.331 277.046C628.426 275.375 633.2 277.086 635.72 280.013C638.241 282.941 638.043 286.443 637.697 292.377C637.203 300.552 636.916 305.671 632.755 309.192C628.481 312.807 623.089 312.244 622.377 312.16C617.87 311.621 613.032 308.698 611.505 304.247C610.96 302.83 610.789 301.297 611.011 299.796C611.559 296.556 613.887 295.701 613.482 293.861C613.076 292.021 610.393 290.726 608.045 290.894C606.924 290.973 604.749 291.388 604.586 292.377C604.245 294.474 612.617 299.672 617.435 296.828C619.125 295.839 619.847 294.153 620.4 292.872C621.997 289.168 620.667 286.937 621.389 281.003C621.629 279.338 621.959 277.687 622.377 276.057C624.922 263.965 622.432 257.373 624.848 256.275C627.467 255.083 632.913 261.675 636.215 265.671C639.862 270.083 642.773 273.48 644.616 278.53C647.295 285.859 646.168 292.17 644.616 300.29C642.175 313.06 640.42 322.234 632.261 327.985C631.189 328.742 622.827 334.449 613.482 331.942C601.912 328.836 595.157 314.835 595.196 305.73C595.196 301.279 594.959 296.828 595.196 292.377C595.404 288.495 595.69 287.086 594.702 285.454C592.192 281.215 583.973 279.821 580.865 282.981C580.015 283.846 579.639 284.959 579.382 289.905C578.947 298.243 579.382 302.268 579.382 302.268C580.4 311.665 581.013 317.338 582.841 323.04C584.428 327.985 589.681 344.36 605.574 352.219C624.779 361.714 644.285 351.229 646.099 350.24C660.514 342.199 665.743 328.599 668.832 320.567C675.993 301.932 672.904 285.498 671.303 277.541C668.901 265.612 665.783 250.152 652.029 239.46C639.219 229.5 624.685 229.514 621.883 229.569C617.964 229.643 611.752 229.836 605.08 233.525C601.369 235.578 598.656 238.683 593.22 244.9C592.152 246.122 591.169 247.313 591.243 248.856C591.381 251.725 595.068 253.555 599.15 255.78C609.909 261.651 614.243 263.322 613.976 264.682C613.813 265.518 611.92 266.126 610.516 265.671C608.47 265.009 607.912 262.209 607.057 259.737C605.995 256.646 605.965 258.337 599.644 247.867C599.491 247.61 597.4 243.416 593.22 235.009C592.617 233.797 591.737 231.977 592.231 231.547C592.928 230.954 595.854 233.347 596.679 234.02C602.392 238.683 603.192 242.343 608.54 249.351C614.287 256.883 617.158 260.647 618.424 261.715C619.209 262.378 621.67 264.381 621.389 266.66C621.266 267.405 620.922 268.094 620.4 268.639C617.613 271.888 611.673 270.75 611.011 270.617C607.823 269.964 604.902 268.208 605.08 267.65C605.258 267.091 608.54 267.65 610.516 268.144C613.66 268.935 617.114 269.811 618.424 272.595C619.13 274.079 618.883 275.473 618.424 278.035C617.989 280.459 617.203 284.801 614.47 285.948C612.33 286.843 609.869 285.419 609.034 284.959C599.644 279.746 588.189 279.657 577.899 276.552C568.664 273.779 559.253 271.632 549.73 270.122C555.132 265.805 559.031 262.472 561.591 260.231C563.073 258.94 564.981 257.229 564.556 256.275C564.2 255.474 562.273 255.355 562.085 255.78C561.828 256.369 564.793 258.179 566.533 259.242C573.654 263.599 577.766 262.012 588.772 265.177C595.824 267.204 599.016 269.257 600.632 267.65C602.115 266.166 601.127 262.674 600.138 260.726C597.628 255.78 591.831 254.217 588.278 253.307C582.772 251.893 577.766 252.12 573.452 252.318C567.813 252.575 563.77 253.421 560.108 250.835C559.121 250.192 558.28 249.35 557.637 248.362C556.57 246.547 556.698 244.781 557.143 240.944C558.132 232.225 558.626 231.69 559.12 231.547C560.474 231.166 562.298 233.476 563.073 235.009C564.062 236.987 564.68 240.345 563.073 241.933C561.556 243.416 559.614 241.849 553.684 241.933C548.43 242.007 546.913 243.298 544.788 241.933C542.461 240.449 541.966 237.388 541.823 236.493C541.47 234.081 541.997 231.624 543.306 229.569C547.722 228.902 552.183 228.572 556.649 228.58C574.998 228.629 581.853 229.569 581.853 229.569C582.96 229.722 587.136 230.311 590.749 228.085C591.282 227.759 593.407 226.448 593.22 225.118C593.007 223.634 590.032 222.932 588.772 222.645C578.819 220.385 558.374 223.501 544.788 223.634C531.025 223.773 521.882 220.874 520.573 224.129C520.133 225.222 520.805 226.433 524.032 230.558C538.324 248.856 544.294 254.791 544.294 254.791C546.123 256.611 549.612 260.019 548.742 261.715C548.53 262.04 548.235 262.304 547.887 262.477C547.54 262.651 547.153 262.729 546.765 262.704C545.969 262.64 545.554 262.051 544.294 260.726C542.179 258.5 542.085 258.822 541.823 258.253C540.711 255.835 543.306 251.868 546.271 249.846C547.353 249.109 548.579 248.268 550.224 248.362C553.274 248.535 555.715 251.824 556.155 254.791C556.326 256.131 556.156 257.492 555.661 258.748C553.634 264.43 548.218 267.803 545.777 269.133L472.635 278.53C471.486 273.09 470.332 267.65 469.176 262.209L532.927 253.802C534.756 253.515 536.832 253.045 536.881 252.318C536.995 250.577 525.475 248.53 524.526 248.362C520.232 247.61 507.936 245.79 484.496 249.351C480.804 249.91 475.324 250.835 468.682 252.318C469.06 248.536 469.06 244.726 468.682 240.944C468.398 238.108 467.903 235.298 467.199 232.536C465.104 232.838 457.809 233.629 452.867 229.074C446.285 223.011 448.815 212.032 449.902 207.314C450.224 205.919 454.009 190.37 465.717 183.081C467.051 182.25 469.418 180.949 469.176 180.113C468.805 178.837 463.112 181.241 454.844 180.113C450.589 179.535 442.895 177.64 439.183 179.045C438.559 179.262 437.997 179.629 437.547 180.113C436.065 181.74 436.46 184.267 436.559 185.059C436.816 187.086 435.684 181.463 434.582 207.314C434.404 211.453 434.221 216.636 434.088 222.645L442.489 224.623C442.578 205.751 443.72 196.889 444.96 192.477C445.827 189.422 445.996 186.21 445.455 183.081C445.064 180.934 444.674 178.768 442.984 177.146C441.293 175.524 439.603 175.811 432.111 175.168C424.886 174.549 423.473 173.986 422.227 175.168C420.547 176.76 421.303 179.495 421.733 184.07C422.049 187.462 421.481 184.342 421.239 200.39C421.105 209.109 421.239 213.649 421.239 220.172C421.303 241.003 420.33 251.764 420.745 264.682C420.848 267.936 421.021 273.292 421.733 280.013C422.039 282.981 422.193 284.464 422.227 284.959C423.132 292.298 423.903 293.703 423.216 296.828C422.786 298.796 421.944 300.65 420.745 302.268C419.954 303.327 419.351 304.128 418.274 304.741C417.602 305.122 416.336 305.661 410.367 304.741C407.248 304.247 405.677 304.009 404.93 303.258C404.184 302.506 404.095 301.744 403.448 296.828C402.736 291.428 402.613 290.973 402.954 289.905C403.547 288.035 405.089 285.75 407.401 284.959C408.424 284.608 408.746 284.84 413.826 284.959C414.978 285.033 416.133 285.033 417.285 284.959C419.4 284.366 420.32 282.229 423.216 274.573C426.181 266.804 426.576 265.404 426.181 263.199C425.801 260.97 424.769 258.905 423.216 257.264C419.554 253.515 413.519 253.115 409.378 254.791C404.436 256.769 402.459 261.596 400.483 266.66C396.677 276.324 396.944 284.781 397.517 298.312C397.834 305.77 398.506 309.969 399.494 316.116C400.28 321.012 401.244 325.73 403.942 330.953C406.319 335.552 408.464 337.481 410.861 338.371C412.444 338.934 414.14 339.103 415.803 338.866C421.995 338.119 430.06 331.057 434.582 321.062C438.729 311.893 438.007 303.411 436.559 286.443C435.462 273.584 434.824 267.002 430.629 261.22C429.497 259.662 421.629 249.158 410.367 249.351C396.035 249.593 386.591 267.002 383.68 278.035C382.029 284.296 382.415 289.464 383.186 299.796C383.467 303.589 384.629 316.868 390.599 333.92C394.661 345.522 396.796 351.412 401.965 355.68C408.943 361.442 417.063 362.154 422.227 362.604C423.764 362.738 439.03 363.905 450.891 356.67C477.454 340.458 471.084 291.675 469.176 277.046C467.318 262.818 465.143 247.867 452.867 236.493C450.016 233.857 440.201 225.049 425.192 224.623C421.56 224.519 407.401 224.356 396.529 235.503C387.021 245.241 386.255 257.2 386.151 260.231C374.636 271.65 371.098 272.471 369.842 271.606C368.765 270.864 368.854 268.525 371.819 257.758C375.343 245.014 377.107 238.639 378.738 235.998C387.633 221.567 411.765 221.587 416.297 221.656C416.458 215.062 416.623 208.468 416.791 201.874C405.831 201.937 394.904 203.097 384.174 205.336C380.22 206.171 366.689 209.01 366.877 211.27C367.011 212.853 373.796 213.639 377.75 213.743C379.899 213.797 382.761 213.689 392.575 211.765C396.529 210.988 399.791 210.281 401.965 209.787C403.115 196.269 404.268 182.751 405.425 169.233C413.282 166.068 419.168 165.573 423.216 165.771C424.698 165.845 426.962 166.063 429.146 164.782C432.427 162.863 433.594 158.714 434.088 155.385L443.478 156.374C440.288 158.565 437.455 161.234 435.076 164.287C431.785 168.526 429.427 173.414 428.158 178.63L438.042 177.64C438.7 175.332 439.359 173.025 440.018 170.717C444.96 166.134 449.902 161.518 454.844 156.869C460.653 151.419 466.418 145.979 472.141 140.549C467.862 140.286 463.571 140.286 459.292 140.549C448.83 141.197 449.715 142.735 431.617 145.989C428.518 146.548 424.812 147.161 424.698 148.462C424.599 149.589 427.248 150.657 429.146 151.429C433.154 153.051 438.709 155.301 443.972 153.407C447.14 152.265 447.975 150.44 451.385 146.978C452.699 145.648 465.524 132.69 472.635 135.603C477.044 137.408 478.072 144.827 478.566 148.462C479.697 156.701 476.297 158.462 478.072 166.76C478.889 170.325 480.047 173.803 481.531 177.146C483.142 180.801 483.789 181.231 484.496 183.575C485.534 187.037 485.089 189.262 484.496 195.444C483.137 209.549 484.219 210.835 484.99 211.27C486.473 212.116 489.038 211.033 490.427 209.787C491.413 208.853 492.101 207.649 492.403 206.325C493.392 202.512 492.685 189.98 490.427 173.189L482.025 172.695C480.202 172.883 477.395 173.486 475.601 175.662C473.451 178.273 473.915 181.755 474.118 184.07C475.487 199.663 469.013 208.303 473.624 211.765C475.176 212.932 477.053 212.813 478.072 212.754C494.004 211.859 526.74 213.412 536.881 214.238C552.799 215.533 564.185 219.183 567.027 214.238C567.783 212.922 567.862 209.569 568.015 202.863C568.095 199.445 568.134 197.734 568.015 194.455C567.763 187.378 567.427 164.025 567.027 130.163C565.915 129.866 564.398 129.495 562.579 129.174C559.614 128.65 558.996 128.798 558.626 129.174C557.988 129.827 558.369 130.954 558.626 132.636C558.626 132.67 558.626 134.802 558.626 139.065C558.626 146.572 555.982 163.046 557.143 180.608C557.267 182.507 557.761 190.004 558.626 190.004C559.491 190.004 560.271 182.68 560.602 179.619C561.131 174.708 561.556 168.842 561.591 149.945C561.625 131.429 561.225 132.384 561.591 131.152C561.858 130.252 562.49 128.333 561.591 126.701C560.202 124.194 555.557 123.037 552.255 124.594C551.885 124.761 551.535 124.97 551.213 125.217C548.248 127.497 548.643 132.591 548.742 134.119C549.345 143.333 548.07 152.606 548.742 161.815C550.027 179.421 548.519 190.454 549.236 190.499C549.953 190.543 551.366 177.497 551.707 174.179C553.19 159.599 553.97 152.304 553.19 146.978C552.28 140.781 550.254 134.411 552.695 129.668C552.952 129.174 553.684 127.849 553.19 126.701C552.246 124.545 547.625 124.664 545.282 124.723C541.482 124.822 538.823 124.886 537.375 126.701C535.893 128.59 536.733 131.033 537.375 135.603C537.973 139.851 537.617 144.179 537.869 148.462C538.858 165.657 536.782 188.832 538.364 189.015C539.14 189.104 540.568 183.654 541.329 179.124C543.533 166.008 540.162 160.494 541.329 145C541.517 142.527 541.586 140.054 541.823 137.581C542.643 129.016 543.839 125.499 541.823 123.734C541.013 123.027 539.802 122.933 537.375 122.745C535.023 122.531 532.654 122.869 530.456 123.734C528.974 124.337 527.664 124.886 526.997 126.207C526.187 127.809 526.824 129.624 526.997 130.163C527.101 130.48 527.066 135.648 526.997 145.989C526.943 154.446 526.439 153.19 526.009 166.76C525.751 172.406 526.25 178.061 527.491 183.575C527.951 185.578 528.756 189.07 529.468 189.015C530.18 188.961 530.575 184.945 530.951 171.706C532.003 134.466 530.031 137.057 531.445 132.636C531.85 131.37 532.927 128.294 531.445 126.207C529.804 123.892 525.821 123.927 523.044 124.228C522.668 132.392 522.338 140.634 522.055 148.956C521.577 163.18 521.248 177.192 521.067 190.993L570.486 193.466C570.709 160.529 570.981 137.225 571.475 129.174C571.729 125.211 571.563 121.233 570.981 117.305C570.486 114.041 569.943 110.242 568.51 107.413C564.477 99.4314 552.769 97.646 544.788 96.5332C535.023 95.1683 526.626 95.6975 514.148 97.5224C497.419 99.9704 484.496 103.121 471.153 106.424C459.475 109.308 447.733 111.914 436.065 114.832C432.961 115.608 429.744 115.9 426.675 116.81C423.868 117.641 422.114 118.393 419.756 117.799C417.98 117.344 416.412 116.297 415.308 114.832C413.826 112.829 413.826 110.658 413.826 109.392C413.826 104.199 417.009 103.145 416.297 99.9951C415.758 97.6114 413.984 98.4175 410.367 93.5659C408.884 91.5877 408.222 90.1683 406.413 89.6095C405.321 89.2682 403.66 89.2039 402.954 90.104C402.247 91.0041 402.83 92.5076 403.448 94.0605C403.784 94.9111 404.609 96.7558 407.401 99.9951C409.082 101.944 409.927 102.923 410.861 103.457C411.217 103.66 414.32 105.366 417.779 104.446C420.043 103.848 420.374 102.695 421.733 102.962C423.552 103.319 424.501 105.683 425.192 107.413C425.776 108.867 426.517 110.717 425.687 111.864C424.98 112.854 423.473 112.854 422.721 112.854C417.285 113.007 412.141 115.707 410.367 116.81C407.233 118.759 407.258 120.272 402.459 123.239C400.685 124.332 399.682 124.723 398.506 124.723C395.046 124.688 392.645 121.103 392.081 120.272C387.866 114.041 390.599 105.895 391.093 104.446C392.689 99.6984 395.437 96.7459 397.517 94.555C399.42 92.5521 409.507 82.3791 424.698 82.1911C429.109 82.0833 433.491 82.9267 437.547 84.6639C441.18 86.422 444.385 88.954 446.937 92.0823C449.408 95.099 449.635 96.7855 449.408 98.0169C449.297 98.6199 449.065 99.194 448.725 99.7042C448.385 100.214 447.945 100.65 447.431 100.984C446.077 101.79 443.972 101.87 443.478 100.984C442.984 100.099 444.076 98.3087 445.455 97.5224C446.042 97.1469 446.736 96.9732 447.431 97.0278C449.517 97.2701 451.128 100.054 450.891 102.468C450.812 103.372 450.468 104.232 449.902 104.941C448.054 107.201 444.081 107.359 442.984 105.93C442.489 105.262 442.984 104.738 442.489 103.457C442.24 102.776 441.846 102.158 441.334 101.646C440.822 101.133 440.204 100.739 439.524 100.49C437.913 99.9951 436.144 101.162 432.605 103.457C431.236 104.342 430.545 104.797 430.134 105.435C429.492 106.424 429.769 106.865 429.146 110.875C428.958 112.077 428.864 112.493 429.146 112.854C429.853 113.764 432.032 113.145 433.1 112.854C442.405 110.287 444.55 110.796 451.385 107.413C453.456 106.39 453.935 106.009 454.35 105.435C457.127 101.602 453.129 94.4314 452.373 93.0714C447.51 84.3425 436.747 78.2001 425.687 77.7401C418.155 77.4286 412.487 79.8272 406.907 82.1911C402.039 84.2534 395.951 86.9092 390.599 93.0714C387.663 96.4492 382.973 101.845 383.186 109.392C383.344 115.04 386.151 119.312 387.139 120.766C388.404 122.68 390.025 125.124 393.07 126.701C394.859 127.626 395.18 127.245 399.494 128.679C404.866 130.47 405.948 131.592 406.413 132.141C407.994 134.021 408.765 136.869 407.896 137.581C407.026 138.294 404.55 136.671 404.436 136.592C402.459 135.247 400.542 132.473 400.977 129.668C401.387 127.023 403.705 125.672 407.896 123.239C412.482 120.574 415.012 119.105 418.274 119.777C422.657 120.687 424.99 124.777 425.687 126.207C428.81 132.636 425.019 139.035 424.698 139.56C422.38 143.333 417.483 147.344 412.343 146.483C407.204 145.623 404.036 140.114 403.448 139.065C401.471 135.559 402.133 133.625 399.988 131.647C398.194 130.01 396.035 129.822 391.587 129.668C380.537 129.283 375.012 129.095 370.337 130.163C364.307 131.543 363.759 132.992 359.958 133.13C359.375 133.13 357.982 133.17 356.993 134.119C355.827 135.237 355.634 137.23 356.005 138.57C356.8 141.444 360.304 141.681 364.406 144.011C367.91 145.989 367.233 146.894 377.255 157.858C382.197 163.298 383.309 164.08 384.668 164.782C385.711 165.316 387.984 166.355 396.529 166.76C405.074 167.166 410.559 167.428 411.355 165.277C412.106 163.249 408.316 160.173 407.896 159.836C406.724 158.887 404.476 157.062 402.459 157.858C400.695 158.555 400.107 160.86 399.988 161.32C399.618 162.779 400.137 163.021 399.988 164.782C399.771 167.403 398.506 167.977 398.012 170.717C397.834 171.681 397.853 172.329 398.012 174.673C398.59 183.184 399 184.713 398.012 185.553C397.023 186.394 395.921 185.623 392.575 185.059C385.563 183.877 384.09 185.993 381.209 184.564C377.354 182.65 379.311 178.526 374.784 172.695C371.73 168.738 366.418 164.945 361.441 165.771C358.812 166.206 356.321 167.937 356.499 168.738C356.603 169.203 357.601 169.362 361.935 169.728C366.269 170.093 366.877 170.4 368.36 170.222C369.956 170.024 372.719 169.688 373.302 168.244C374.078 166.325 370.603 163.417 367.866 160.826C356.603 150.158 358.169 145.212 351.063 141.538C348.335 140.128 343.65 140.104 334.26 140.054C319.928 139.98 309.901 142.191 303.872 140.465C302.389 140.034 300.65 139.876 297.195 139.56C294.917 139.352 293.8 139.352 293.242 140.054C292.337 141.187 293.454 143.437 293.736 144.011C294.502 145.564 296.128 147.779 303.126 150.934C308.127 153.19 310.633 154.317 311.527 153.407C312.926 151.988 310.702 146.201 306.585 143.021C301.431 139.04 293.612 139.377 288.794 142.527C287.153 143.6 286.056 144.891 283.852 147.473C281.737 149.888 279.912 152.544 278.416 155.385C276.411 159.254 275.075 163.434 274.462 167.749C277.422 166.486 280.694 166.141 283.852 166.76C287.381 167.532 291.309 169.841 296.207 177.64C300.091 183.822 302.849 190.687 305.597 203.357C307.04 210.019 306.585 209.544 310.044 243.416C310.894 251.759 311.833 260.726 309.056 261.715C308.023 262.091 306.822 261.22 306.091 260.726C302.538 258.218 302.305 253.199 302.137 247.867C301.945 241.809 301.786 236.829 305.103 234.514C305.409 234.302 307.9 232.61 310.044 233.525C314.591 235.469 313.588 247.422 312.515 260.231C312.071 265.543 311.339 271.042 310.539 277.046C309.713 283.253 309.679 282.729 309.056 287.432C307.045 302.605 307.223 309.039 302.632 313.149C301.559 314.108 300.655 314.568 299.666 314.632C296.242 314.865 293.271 310.181 290.771 305.73C283.427 292.61 280.887 283.475 280.887 283.475C278.499 274.916 277.009 266.132 276.439 257.264C275.831 247.373 274.833 227.709 283.358 205.83C286.323 198.199 292.921 181.295 301.149 181.597C302.552 181.646 305.982 182.274 311.527 191.488C318.199 202.571 320.279 213.367 321.905 228.58C324.169 249.722 325.3 260.295 323.388 275.068C321.905 286.443 320.729 295.627 314.986 306.225C307.722 319.632 297.413 327.491 291.265 331.447L283.358 324.523V312.16L275.451 310.676C274.624 305.236 273.8 299.796 272.98 294.356L268.038 294.85L262.602 280.013L268.038 274.573C267.379 271.936 266.72 269.298 266.061 266.66L261.119 259.737C261.28 256.604 261.445 253.472 261.613 250.34L265.567 245.889C264.618 240.746 263.491 233.105 263.59 225.612C263.625 222.833 263.654 221.404 264.084 219.678C265.112 215.548 267.138 213.684 267.544 209.292C267.635 208.305 267.635 207.312 267.544 206.325L272.98 203.357C272.321 201.544 271.662 199.731 271.003 197.917L278.416 187.532C278.086 185.059 277.757 182.586 277.427 180.113L286.323 172.695V163.793L301.149 155.385C306.056 155.153 308.616 156.543 310.044 157.858C311.987 159.648 312.204 161.642 315.481 167.255C316.469 168.971 317.368 170.336 317.952 171.211L352.051 167.255L353.534 181.597L356.993 184.564L354.028 191.983C355.346 196.104 356.664 200.225 357.982 204.346C361.337 205.044 362.499 206.28 362.924 207.314C363.848 209.559 361.574 211.532 360.947 216.71C360.821 218.356 360.821 220.01 360.947 221.656C361.06 224.569 361.312 228.609 361.935 233.525L366.877 236.987C365.062 245.889 363.25 254.791 361.441 263.693L366.877 268.639C367.633 273.47 366.808 276.828 365.889 279.024C363.872 283.846 360.487 285.271 359.958 289.41C359.548 292.595 361.085 295.434 362.429 297.323L354.028 313.149C354.189 315.951 354.354 318.754 354.522 321.556L350.074 328.48L338.708 334.415L333.272 332.931L325.859 334.415V339.855L300.655 342.327C299.996 339.855 299.337 337.382 298.678 334.909L288.3 333.425H-112" stroke="white" stroke-miterlimit="10"/>
</svg>
