<?xml version="1.0" encoding="UTF-8"?>
<svg id="Layer_1" data-name="Layer 1" xmlns="http://www.w3.org/2000/svg" viewBox="0 0 700.09 342.68">
  <defs>
    <style>
      .cls-1 {
        fill: #eab745;
      }

      .cls-1, .cls-2, .cls-3 {
        stroke-width: 0px;
      }

      .cls-4 {
        font-size: 72px;
      }

      .cls-4, .cls-2, .cls-5 {
        fill: #459156;
      }

      .cls-4, .cls-5 {
        font-family: Bauhaus93, 'Bauhaus 93';
      }

      .cls-3 {
        fill: #245493;
      }

      .cls-5 {
        font-size: 116px;
      }
    </style>
  </defs>
  <path class="cls-3" d="M331.34.24c4.64-.88,9.8.66,12.92,4.28,5.87,6.59,8.51,15.56,8.47,24.28.25,8.42-1.88,17.07-6.84,23.95-2.67,3.87-7.25,6.33-11.93,6.46-4.4-.3-8.79-2.36-11.45-5.94-4.3-5.54-6.23-12.55-6.89-19.43-.84-9.6,1.04-19.75,6.64-27.74,2.08-3.09,5.41-5.23,9.08-5.86Z"/>
  <path class="cls-3" d="M285.78,4.94c3.74,5.67,5.84,12.18,8.73,18.28,3.84,8.45,8.23,16.73,13.98,24.05,5.5,6.94,12.7,12.37,20.45,16.58,14.69,7.97,30.53,13.5,46.42,18.53,8.09,2.71,16.36,5.09,24.01,8.94,15.52,7.32,26.16,22.12,32.61,37.6-4.53-4.54-8.13-9.92-12.8-14.33-9.6-9.64-22.28-16.25-35.78-18.19-6.98-1.34-14.75-1.03-20.78,3.09-6.23,4.44-8.34,12.84-7.1,20.1,2.08,12.02,8.25,22.77,14.72,32.93,12.84,20.49,20.01,43.95,24.4,67.57,2.03,12.16,3.81,24.38,4.35,36.71,18.32-11.97,40.08-18.76,61.97-19.16,24.25.89,47.64,8.33,69.97,17.34,13.03,5.34,26.21,10.31,39.22,15.7,10.04,3.39,20.45,5.65,30.95,7.11,8.83,1.88,17.9,2.02,26.89,1.67,9.14-.38,17.93-3.62,27.12-3.44-12.74,8.58-26.99,14.6-41.5,19.44-9.66,2.56-19.65,4.12-29.66,3.97-6.92-.07-13.92.32-20.76-1-10.55-2.04-21.19-3.86-31.36-7.39-26.24-8.97-51.22-21.76-78.46-27.68-9.03-1.84-18.09-4.07-27.36-4.15-8.94-.11-17.9-.21-26.82.56-.44,11.23-.28,22.5-1.45,33.69-.23,4.63-.53,9.24-1.84,13.71-3.91-6.36-9.77-11.1-14.55-16.74-24.39-28.02-37.77-65.5-36.09-102.67-.03-6.7,1.24-13.3,1.79-19.96.14-3.68-3.09-6.24-4.99-9.05-10.52-14.02-21.19-28.04-29.57-43.48-14.09-25.45-21.42-54.04-25.24-82.72-1-9.15-2.89-18.41-1.47-27.61ZM362.34,189.71c-.31,8.45-.51,16.94.39,25.37,2.43,16.91,7.01,33.68,15.12,48.8,4.02,7.47,8.22,15.01,14.15,21.17-2.99-25.45-8.79-50.74-18.86-74.38-3.17-7.19-6.04-14.63-10.8-20.96Z"/>
  <path class="cls-3" d="M450.75,49.57c19.11-5.59,39.33-7.88,59.16-5.59,17.46,1.86,34.84,6.24,50.43,14.45,13.26,6.8,26.41,14.38,36.95,25.07,11.88,12.04,22.87,25.25,30.62,40.37,4.29,8.73,8.03,17.77,10.69,27.13,2.03,7.19,4,14.53,3.88,22.07-3.07-7.54-4.08-15.73-7.39-23.2-6.21-18.34-17.32-34.63-30.53-48.64-4.85-5.17-9.84-10.28-15.68-14.35-10.83-7.66-22.56-14.02-34.77-19.19-21.24-8.22-44.44-11.55-67.09-8.76-11.48,1.58-22.94,3.99-33.78,8.16-15.48,6.34-30.44,14.39-43.06,25.49-5.51-3.7-11.59-6.44-17.68-9.04,6.46-7.47,14.89-12.86,23.26-17.94,11.1-6.45,22.6-12.47,34.99-16.03Z"/>
  <path class="cls-3" d="M397.58,306.77c.62-3.88,1.3-7.75,2.08-11.6,5.01,5.09,10.3,9.91,15.9,14.35.84.66,8.89,6.96,17.67,12.07,33.44,19.46,73.25,19.24,82.64,17.94.37-.05,5.66-.79,12.72-1.9,3.83-.6,7.05-1.13,9.41-1.52-12.94,4.28-23.86,5.74-31.69,6.24-7.39.47-16.3.35-16.31.14,0-.15,4.6-.46,4.6-.43,0,0-4.42.44-4.6.43-19.92-1.08-39.93-5.06-57.95-13.83-12.28-5.9-24.46-12.53-34.47-21.89Z"/>
  <g>
    <path class="cls-1" d="M486.75,82.4c.56,2.28,1.66,4.43,1.82,6.8.86,8.38,2.77,16.59,4.13,24.89,1.41,8.51,2.72,17.04,4.07,25.56-3.74,1.42-7.58,2.56-11.52,3.22-1.07-9.67.3-19.36.08-29.05-.22-10.5.59-20.97,1.42-31.42Z"/>
    <path class="cls-1" d="M533.77,99.74c1.35-3.7,3.35-7.08,5.92-10.07-3.19,13.02-6.43,26.03-10,38.95-1.08,3.86-1.75,7.88-3.48,11.52-3.34,1.05-6.85-.07-10.21-.44,5.23-13.62,11.58-26.77,17.77-39.96Z"/>
    <path class="cls-1" d="M441.84,104.51c2.67,3.27,4.89,6.86,6.88,10.58,4.4,7.57,8.9,15.1,13.33,22.66,2.24,3.91,5.03,7.6,6.27,12-1.65,3.15-5.25,4.37-8.06,6.23-4.39-10-8.16-20.27-11.79-30.56-2.14-7-5.39-13.66-6.63-20.91Z"/>
    <path class="cls-1" d="M577.52,116.38c2.29-2.08,4.82-3.88,7.38-5.61-3.06,5.75-7.32,10.71-10.93,16.11-4.78,7.13-10.06,13.91-15.15,20.82-1.49,1.77-2.85,3.89-5.03,4.86-3.71-.61-6.71-3.12-9.94-4.86,10.19-11.5,22.4-20.94,33.67-31.32Z"/>
    <path class="cls-1" d="M405.94,142.62c10.06,5.68,18.93,13.19,28.29,19.92,3.66,3.06,8.3,5.21,11,9.26-1.11,3.25-3.35,5.91-5.29,8.68-6.97-6.6-13.02-14.08-19.57-21.08-4.87-5.54-10.31-10.62-14.43-16.78Z"/>
    <path class="cls-1" d="M600.09,155.92c6.36-1.95,12.54-4.6,19.13-5.77-4.61,4.7-10.83,7.1-16.24,10.69-9.24,5.32-18.18,11.21-27.72,16-2.48-2.98-4.83-6.06-6.99-9.27,2.61-1.27,5.09-2.84,7.89-3.69,8.05-2.45,15.9-5.47,23.93-7.96Z"/>
    <path class="cls-1" d="M386.56,185.83c5.14.49,10.06,2.05,15.02,3.38,11,2.63,22,5.35,32.83,8.63-.7,3-1.45,5.99-2.15,9-9.6-3.63-18.95-7.83-28.36-11.89-5.91-2.79-12.41-4.63-17.34-9.12Z"/>
    <path class="cls-1" d="M582.6,194.63c13.39.56,26.78,1.29,40.16,2.17,2.72.25,5.33,1.15,7.94,1.94-5.78,1.7-11.82,1.65-17.74,2.36-9.41.9-18.87,3.11-28.35,2.09-1.55-2.57-1.46-5.71-2.01-8.56Z"/>
  </g>
  <g>
    <path class="cls-2" d="M460.79,205.64c10.87-4.86,22.14-9.5,34.12-10.52,9.57-1.25,19.32-1.25,28.81.64,20.03,2.74,38.6,11.16,57.42,18.09,11.01,5,22,10.07,33.26,14.52,12.29,4.66,25.32,7.22,38.42,8.07,7.71.71,15.52,1.47,23.22.2,8.22-1.05,15.59-5.89,24.05-5.59-8.12,5.1-17.16,8.47-26.12,11.77-8.96,3.38-18.59,4.06-28.01,5.13-9.68,1.09-19.31-.72-28.87-2.01-7.16-.93-13.99-3.33-20.88-5.35-15.6-5.04-29.81-13.54-45.37-18.66-10.15-3.59-20.08-7.94-30.58-10.43-12.2-3.03-24.71-5-37.27-5.41-10.38-.42-20.43,2.52-30.24,5.49,2.37-2.36,4.88-4.68,8.04-5.94Z"/>
    <path class="cls-2" d="M464.98,216.98c8.27-.73,16.58-2.17,24.89-1.12,10.05,1.17,20.14,2.42,29.88,5.26,21.34,6.18,42.21,13.83,62.77,22.22,11.95,4.16,23.59,9.45,36.13,11.64,9.96,2.18,20.17,2.45,30.31,3.09,7.47.35,14.96-.44,22.25-2.06,7.8-1.73,14.97-5.49,22.8-7.12-6.48,6.19-15.14,9.1-23.11,12.81-15.02,6.76-31.6,9.18-47.96,9.32-9.45-.84-19.02-1.29-28.25-3.64-11.91-3.02-23.96-5.82-35.21-10.87-15.48-6.17-31.11-11.96-46.9-17.29-12.63-4.19-25.72-7.06-38.97-8.23-10.6-1.05-21.36-2.56-31.94-.51-7.44,1.11-14.36,4.38-21.84,5.28,6.09-5.05,13.38-8.29,20.57-11.43,7.95-3.14,15.97-6.6,24.58-7.35Z"/>
  </g>
  <text class="cls-5" transform="translate(0 177.5)"><tspan x="0" y="0">RMA</tspan></text>
  <text class="cls-4" transform="translate(180.03 229.94) scale(1.05 1)"><tspan x="0" y="0">agro</tspan></text>
</svg>