<svg width="66" height="66" viewBox="0 0 66 66" fill="none" xmlns="http://www.w3.org/2000/svg">
<g clip-path="url(#clip0_25_426)">
<path d="M33 63C49.5685 63 63 49.5685 63 33C63 16.4315 49.5685 3 33 3C16.4315 3 3 16.4315 3 33C3 49.5685 16.4315 63 33 63Z" stroke="white" stroke-width="5" stroke-linecap="round" stroke-linejoin="round"/>
<path d="M3 33H63" stroke="white" stroke-width="5" stroke-linecap="round" stroke-linejoin="round"/>
<path d="M33 3C40.5038 11.2151 44.7683 21.8761 45 33C44.7683 44.1239 40.5038 54.7849 33 63C25.4962 54.7849 21.2317 44.1239 21 33C21.2317 21.8761 25.4962 11.2151 33 3V3Z" stroke="white" stroke-width="5" stroke-linecap="round" stroke-linejoin="round"/>
</g>
<defs>
<clipPath id="clip0_25_426">
<rect width="66" height="66" fill="white"/>
</clipPath>
</defs>
</svg>
