<svg width="22" height="20" viewBox="0 0 22 20" fill="none" xmlns="http://www.w3.org/2000/svg">
<path d="M20.9937 4.84699C20.7538 3.92316 20.047 3.19559 19.1495 2.94867C17.5228 2.5 11 2.5 11 2.5C11 2.5 4.47711 2.5 2.85037 2.94867C1.95291 3.19563 1.24609 3.92316 1.00619 4.84699C0.570312 6.52148 0.570312 10.0152 0.570312 10.0152C0.570312 10.0152 0.570312 13.5088 1.00619 15.1833C1.24609 16.1071 1.95291 16.8044 2.85037 17.0513C4.47711 17.5 11 17.5 11 17.5C11 17.5 17.5228 17.5 19.1495 17.0513C20.047 16.8044 20.7538 16.1071 20.9937 15.1833C21.4296 13.5088 21.4296 10.0152 21.4296 10.0152C21.4296 10.0152 21.4296 6.52148 20.9937 4.84699ZM8.8666 13.1871V6.84316L14.3184 10.0152L8.8666 13.1871Z" fill="#666666"/>
</svg>
