<svg width="240" height="225" viewBox="0 0 240 225" fill="none" xmlns="http://www.w3.org/2000/svg">
<g clip-path="url(#clip0_8_393)">
<path d="M125.663 44.7896C128.1 34.1162 133.765 24.4526 141.888 17.1135C150.541 9.12022 160.981 5.09349 171.377 0C174.562 16.4224 178.888 37.2471 171.632 53.1736C167.284 62.5246 159.97 70.1778 150.826 74.9449C147.553 76.6643 144.075 77.9618 140.476 78.8064C139.868 78.9575 139.251 79.063 138.628 79.1219C141.663 61.9962 148.226 45.6891 157.902 31.2371C158.087 30.9994 158.222 30.726 158.297 30.434C158.372 30.1419 158.387 29.8374 158.339 29.5396C158.291 29.2419 158.183 28.9571 158.02 28.7032C157.857 28.4493 157.644 28.2316 157.393 28.0638C157.143 27.8961 156.86 27.7818 156.564 27.7281C156.267 27.6744 155.962 27.6826 155.669 27.7519C155.375 27.8213 155.099 27.9504 154.858 28.1312C154.617 28.3121 154.415 28.5408 154.266 28.803C144.163 43.8853 137.336 60.9201 134.226 78.8064C132.485 78.3105 130.898 77.3798 129.614 76.1019C120.976 67.5977 125.603 45.015 125.663 44.7896Z" fill="white"/>
<path d="M64.4016 35.9251L73.8057 35.6546C84.652 35.5044 98.1723 35.6545 106.465 43.2722C112.424 48.9951 116.749 56.2047 118.994 64.1571C119.084 64.4125 119.159 64.668 119.249 64.9384C120.21 67.9434 121.532 72.0002 119.159 75.456L118.873 75.8316C113.002 64.8556 103.618 56.168 92.2234 51.1604C91.6732 50.9308 91.0562 50.9196 90.498 51.1289C89.9399 51.3383 89.4824 51.7525 89.2189 52.2873C89.0884 52.5463 89.0122 52.8293 88.9948 53.1188C88.9774 53.4083 89.0191 53.6983 89.1175 53.9711C89.216 54.2439 89.369 54.4937 89.5672 54.7054C89.7654 54.917 90.0046 55.0861 90.2704 55.2021C100.958 59.8937 109.724 68.0939 115.118 78.4459C114.242 78.7447 113.335 78.9414 112.414 79.0319C106.605 79.4881 100.769 78.6357 95.333 76.5377C94.5669 76.2673 93.8308 75.9668 93.0496 75.6513C76.2244 68.4543 64.4016 35.9251 64.4016 35.9251Z" fill="white"/>
<path d="M235.553 210.261C234.358 210.261 233.212 209.786 232.366 208.94C231.521 208.095 231.047 206.948 231.047 205.753C229.989 176.992 217.822 149.761 197.104 129.788C176.385 109.814 148.731 98.6543 119.955 98.6543C91.179 98.6543 63.5243 109.814 42.8062 129.788C22.0881 149.761 9.92092 176.992 8.86327 205.753C8.7102 206.827 8.1746 207.811 7.35497 208.522C6.53534 209.233 5.48666 209.625 4.40153 209.625C3.31641 209.625 2.26773 209.233 1.4481 208.522C0.628465 207.811 0.0929603 206.827 -0.0601151 205.753C-0.237707 189.878 2.73521 174.125 8.68649 159.407C14.6378 144.689 23.4492 131.297 34.6105 120.009C45.7719 108.72 59.0614 99.7577 73.7097 93.6411C88.3579 87.5245 104.074 84.375 119.947 84.375C135.821 84.375 151.537 87.5245 166.185 93.6411C180.833 99.7577 194.123 108.72 205.284 120.009C216.446 131.297 225.257 144.689 231.208 159.407C237.16 174.125 240.132 189.878 239.955 205.753C239.955 206.93 239.495 208.061 238.672 208.904C237.85 209.746 236.73 210.233 235.553 210.261Z" fill="white"/>
<path d="M62.3735 156.681V132.386H78.733V136.578H67.6164V142.287H78.1322V146.509H67.6164V156.756L62.3735 156.681Z" fill="white"/>
<path d="M104.286 156.681H98.653L95.5584 148.582C95.3584 148.013 94.9505 147.541 94.4166 147.26C93.8083 146.987 93.1451 146.859 92.4788 146.885H89.0386V156.681H83.7808V132.385H94.5969C96.8865 132.222 99.1597 132.877 101.012 134.234C101.754 134.891 102.336 135.709 102.713 136.626C103.091 137.542 103.254 138.533 103.19 139.522C103.228 141.012 102.78 142.473 101.913 143.684C100.993 144.887 99.7061 145.757 98.2475 146.163C98.9858 146.343 99.663 146.716 100.209 147.244C100.756 147.773 101.152 148.437 101.357 149.168L104.286 156.681ZM93.7707 142.828C94.9343 142.917 96.0975 142.649 97.1057 142.062C97.4411 141.757 97.7091 141.386 97.8925 140.972C98.076 140.558 98.1707 140.11 98.1707 139.658C98.1707 139.205 98.076 138.757 97.8925 138.343C97.7091 137.929 97.4411 137.558 97.1057 137.254C96.0995 136.66 94.936 136.387 93.7707 136.472H88.9184V142.828H93.7707Z" fill="white"/>
<path d="M109.634 156.681V132.386H126.385V136.518H114.817V142.287H125.664V146.449H114.817V152.594H126.385V156.726L109.634 156.681Z" fill="white"/>
<path d="M134.617 156.245C133.093 155.842 131.664 155.142 130.411 154.187L132.123 150.371C134.416 151.986 137.16 152.838 139.965 152.805C141.196 152.878 142.424 152.624 143.525 152.069C143.904 151.876 144.222 151.581 144.442 151.217C144.662 150.853 144.777 150.435 144.772 150.01C144.774 149.628 144.667 149.253 144.465 148.929C144.263 148.605 143.974 148.344 143.63 148.177C142.359 147.568 141.009 147.138 139.619 146.9C137.864 146.584 136.154 146.054 134.527 145.322C133.418 144.822 132.463 144.033 131.763 143.038C131.147 142.027 130.844 140.856 130.891 139.673C130.876 138.273 131.296 136.903 132.093 135.751C132.952 134.549 134.127 133.608 135.488 133.032C137.085 132.361 138.804 132.033 140.536 132.07C142.227 132.059 143.91 132.313 145.523 132.821C146.93 133.213 148.233 133.911 149.339 134.865L147.641 138.681C145.632 137.092 143.143 136.228 140.581 136.232C139.433 136.175 138.294 136.457 137.306 137.043C136.923 137.273 136.608 137.6 136.392 137.99C136.176 138.38 136.066 138.821 136.074 139.267C136.054 139.76 136.221 140.243 136.54 140.619C136.95 141.066 137.467 141.402 138.042 141.596C139.053 141.964 140.093 142.246 141.152 142.437C143.561 142.825 145.858 143.733 147.882 145.097C148.561 145.628 149.103 146.315 149.461 147.099C149.819 147.884 149.983 148.743 149.94 149.604C149.976 150.655 149.753 151.699 149.289 152.642C148.825 153.586 148.135 154.4 147.281 155.013C145.101 156.468 142.505 157.169 139.89 157.012C138.105 157.007 136.329 156.749 134.617 156.245Z" fill="white"/>
<path d="M172.023 132.386H177.236V156.681H172.023V146.479H160.771V156.681H155.543V132.386H160.771V142.287H172.023V132.386Z" fill="white"/>
<path d="M41.0417 196.377C39.2683 195.365 37.8357 193.848 36.9255 192.02C35.9654 189.951 35.468 187.698 35.468 185.417C35.468 183.136 35.9654 180.882 36.9255 178.813C37.8458 177.004 39.2771 175.504 41.0417 174.501C42.9738 173.462 45.1431 172.944 47.3361 172.999C49.5247 172.941 51.6901 173.459 53.6155 174.501C55.3762 175.505 56.8026 177.004 57.7167 178.813C58.6574 180.888 59.144 183.139 59.144 185.417C59.144 187.694 58.6574 189.946 57.7167 192.02C56.8128 193.848 55.385 195.365 53.6155 196.377C51.6901 197.42 49.5247 197.938 47.3361 197.88C45.1431 197.934 42.9738 197.416 41.0417 196.377ZM52.1283 191.584C53.3903 189.783 53.9997 187.604 53.8559 185.409C54.0075 183.223 53.3971 181.051 52.1283 179.264C51.5215 178.596 50.7816 178.062 49.9564 177.697C49.1311 177.331 48.2386 177.143 47.3361 177.143C46.4337 177.143 45.5412 177.331 44.7159 177.697C43.8906 178.062 43.1508 178.596 42.5439 179.264C41.2872 181.056 40.6828 183.225 40.8313 185.409C40.6833 187.607 41.2872 189.79 42.5439 191.6C43.122 192.303 43.8561 192.862 44.6879 193.233C45.5198 193.603 46.4265 193.774 47.3361 193.733C48.2453 193.782 49.1531 193.616 49.9858 193.248C50.8185 192.88 51.5526 192.32 52.1283 191.615V191.584Z" fill="white"/>
<path d="M85.5083 197.609H79.8748L76.7802 189.526C76.5842 188.954 76.1752 188.481 75.6385 188.203C75.0301 187.931 74.3669 187.802 73.7006 187.828H70.2605V197.609H65.0026V173.329H75.8187C78.1065 173.161 80.3795 173.811 82.2334 175.162C82.9736 175.82 83.5543 176.639 83.9317 177.555C84.309 178.471 84.4732 179.462 84.4117 180.451C84.4542 181.94 84.0054 183.403 83.1347 184.612C82.216 185.82 80.9295 186.695 79.4693 187.107C80.2096 187.282 80.889 187.654 81.4362 188.182C81.9834 188.711 82.3781 189.378 82.5789 190.112L85.5083 197.609ZM74.9925 183.756C76.1563 183.847 77.32 183.579 78.3275 182.99C78.6629 182.686 78.9309 182.314 79.1143 181.9C79.2978 181.486 79.3925 181.039 79.3925 180.586C79.3925 180.133 79.2978 179.685 79.1143 179.271C78.9309 178.857 78.6629 178.486 78.3275 178.182C77.32 177.592 76.1563 177.325 74.9925 177.416H70.1553V183.756H74.9925Z" fill="white"/>
<path d="M111.527 184.207V196.107C110.213 196.726 108.824 197.176 107.396 197.444C105.793 197.763 104.163 197.924 102.529 197.925C100.211 197.977 97.9162 197.461 95.8437 196.422C93.9978 195.454 92.4814 193.958 91.4872 192.125C90.437 190.057 89.9205 187.758 89.985 185.439C89.9286 183.149 90.445 180.882 91.4872 178.843C92.4728 177.016 93.9716 175.517 95.7987 174.531C97.8006 173.49 100.033 172.974 102.288 173.028C103.948 173.015 105.6 173.258 107.186 173.75C108.56 174.151 109.834 174.837 110.926 175.763L109.214 179.579C108.204 178.832 107.09 178.234 105.909 177.806C104.784 177.437 103.607 177.255 102.424 177.265C97.7366 177.265 95.3931 179.985 95.3931 185.454C95.3931 190.923 97.8418 193.808 102.739 193.808C104.097 193.807 105.45 193.636 106.765 193.297V187.933H101.958V184.207H111.527Z" fill="white"/>
<path d="M136.36 197.609L134.046 192.215H122.689L120.361 197.609H115.013L126.159 173.329H130.501L141.647 197.609H136.36ZM124.492 188.158H132.334L128.413 179.053L124.492 188.158Z" fill="white"/>
<path d="M161.432 173.329H166.45V197.609H162.484L150.376 182.118V197.609H145.403V173.329H149.324L161.432 188.774V173.329Z" fill="white"/>
<path d="M173.03 197.609V173.329H178.347V197.609H173.03Z" fill="white"/>
<path d="M189.9 196.377C188.095 195.371 186.627 193.856 185.678 192.02C184.718 189.969 184.221 187.733 184.221 185.469C184.221 183.205 184.718 180.968 185.678 178.918C186.619 177.077 188.089 175.559 189.9 174.561C191.877 173.513 194.093 172.996 196.33 173.058C197.897 173.048 199.455 173.297 200.941 173.795C202.28 174.208 203.51 174.911 204.547 175.853L202.879 179.684C201.908 178.928 200.83 178.32 199.68 177.881C198.639 177.506 197.541 177.318 196.435 177.325C195.496 177.266 194.555 177.422 193.686 177.781C192.816 178.14 192.04 178.694 191.417 179.399C190.277 181.229 189.673 183.343 189.673 185.499C189.673 187.655 190.277 189.769 191.417 191.599C192.036 192.312 192.81 192.872 193.68 193.237C194.551 193.602 195.493 193.761 196.435 193.703C197.541 193.705 198.64 193.512 199.68 193.132C200.829 192.699 201.908 192.096 202.879 191.344L204.547 195.16C203.511 196.107 202.281 196.815 200.941 197.234C199.453 197.724 197.896 197.972 196.33 197.97C194.084 198.012 191.866 197.462 189.9 196.377Z" fill="white"/>
<path d="M234.967 224.925H4.46171C3.81942 225.024 3.16333 224.983 2.53841 224.804C1.91349 224.626 1.3346 224.314 0.841318 223.891C0.348033 223.468 -0.0479299 222.943 -0.319389 222.353C-0.590849 221.762 -0.731445 221.12 -0.731445 220.47C-0.731445 219.82 -0.590849 219.178 -0.319389 218.587C-0.0479299 217.996 0.348033 217.472 0.841318 217.049C1.3346 216.625 1.91349 216.314 2.53841 216.135C3.16333 215.957 3.81942 215.916 4.46171 216.015H234.967C235.61 215.916 236.266 215.957 236.891 216.135C237.516 216.314 238.095 216.625 238.588 217.049C239.081 217.472 239.477 217.996 239.749 218.587C240.02 219.178 240.161 219.82 240.161 220.47C240.161 221.12 240.02 221.762 239.749 222.353C239.477 222.943 239.081 223.468 238.588 223.891C238.095 224.314 237.516 224.626 236.891 224.804C236.266 224.983 235.61 225.024 234.967 224.925Z" fill="white"/>
</g>
<defs>
<clipPath id="clip0_8_393">
<rect width="240" height="225" fill="white"/>
</clipPath>
</defs>
</svg>
