<svg width="34" height="34" viewBox="0 0 34 34" fill="none" xmlns="http://www.w3.org/2000/svg">
<path d="M12.7499 31.1666C13.5323 31.1666 14.1666 30.5323 14.1666 29.7499C14.1666 28.9675 13.5323 28.3333 12.7499 28.3333C11.9675 28.3333 11.3333 28.9675 11.3333 29.7499C11.3333 30.5323 11.9675 31.1666 12.7499 31.1666Z" stroke="white" stroke-width="2.5" stroke-linecap="round" stroke-linejoin="round"/>
<path d="M28.3334 31.1666C29.1158 31.1666 29.7501 30.5323 29.7501 29.7499C29.7501 28.9675 29.1158 28.3333 28.3334 28.3333C27.551 28.3333 26.9167 28.9675 26.9167 29.7499C26.9167 30.5323 27.551 31.1666 28.3334 31.1666Z" stroke="white" stroke-width="2.5" stroke-linecap="round" stroke-linejoin="round"/>
<path d="M1.41675 1.41675H7.08341L10.8801 20.3859C11.0096 21.0381 11.3645 21.624 11.8824 22.041C12.4004 22.458 13.0486 22.6795 13.7134 22.6667H27.4834C28.1483 22.6795 28.7964 22.458 29.3144 22.041C29.8324 21.624 30.1872 21.0381 30.3167 20.3859L32.5834 8.50008H8.50008" stroke="white" stroke-width="2.5" stroke-linecap="round" stroke-linejoin="round"/>
<path d="M21 12V18" stroke="white" stroke-width="2.5" stroke-linecap="round" stroke-linejoin="round"/>
<path d="M24 15H18" stroke="white" stroke-width="2.5" stroke-linecap="round" stroke-linejoin="round"/>
</svg>
